<svg width="149" height="149" viewBox="0 0 149 149" fill="none" xmlns="http://www.w3.org/2000/svg">
<rect opacity="0.203637" x="17.0874" y="16.6825" width="115.762" height="115.762" rx="17.1281" fill="#CECFD3"/>
<path fill-rule="evenodd" clip-rule="evenodd" d="M36.031 1.23988C33.7302 0.623373 31.3655 1.98862 30.749 4.28945C30.1327 6.5897 31.4978 8.95495 33.7986 9.57146C36.0994 10.188 38.4642 8.82214 39.0806 6.52189C39.6971 4.22106 38.3319 1.85638 36.031 1.23988Z" fill="#CECFD3"/>
<path fill-rule="evenodd" clip-rule="evenodd" d="M26.345 37.3903C24.0442 36.7738 21.6795 38.139 21.063 40.4398C20.4466 42.7401 21.8117 45.1053 24.1125 45.7218C26.4134 46.3384 28.7782 44.9725 29.3946 42.6723C30.0111 40.3715 28.6458 38.0068 26.345 37.3903Z" fill="#CECFD3"/>
<path fill-rule="evenodd" clip-rule="evenodd" d="M16.6585 73.5407C14.3576 72.9242 11.993 74.2894 11.3765 76.5902C10.76 78.8911 12.1252 81.2557 14.426 81.8722C16.7269 82.4887 19.0915 81.1235 19.708 78.8227C20.3245 76.5218 18.9593 74.1572 16.6585 73.5407Z" fill="#CECFD3"/>
<path fill-rule="evenodd" clip-rule="evenodd" d="M6.97194 109.691C4.67112 109.075 2.30628 110.44 1.68993 112.741C1.07343 115.041 2.43868 117.406 4.7395 118.023C7.04033 118.639 9.40501 117.274 10.0215 114.973C10.6379 112.673 9.27277 110.308 6.97194 109.691Z" fill="#CECFD3"/>
<path fill-rule="evenodd" clip-rule="evenodd" d="M72.1819 10.9263C69.8811 10.3098 67.5164 11.675 66.8999 13.9758C66.2835 16.2761 67.6486 18.6414 69.9495 19.2579C72.2503 19.8744 74.6151 18.5085 75.2315 16.2083C75.848 13.9075 74.4827 11.5428 72.1819 10.9263Z" fill="#CECFD3"/>
<path fill-rule="evenodd" clip-rule="evenodd" d="M62.4954 47.0768C60.1946 46.4603 57.8299 47.8255 57.2134 50.1264C56.597 52.4266 57.9621 54.7919 60.2629 55.4084C62.5638 56.0249 64.9286 54.6591 65.545 52.3588C66.1615 50.058 64.7962 47.6933 62.4954 47.0768Z" fill="#CECFD3"/>
<path fill-rule="evenodd" clip-rule="evenodd" d="M52.8089 83.2272C50.508 82.6107 48.1434 83.9759 47.5268 86.2768C46.9103 88.5776 48.2756 90.9423 50.5764 91.5588C52.8772 92.1753 55.2419 90.81 55.8584 88.5092C56.4749 86.2084 55.1097 83.8437 52.8089 83.2272Z" fill="#CECFD3"/>
<path fill-rule="evenodd" clip-rule="evenodd" d="M43.1228 119.378C40.822 118.761 38.4572 120.127 37.8408 122.427C37.2243 124.728 38.5896 127.093 40.8904 127.709C43.1912 128.326 45.5559 126.961 46.1724 124.66C46.7887 122.359 45.4236 119.994 43.1228 119.378Z" fill="#CECFD3"/>
<path fill-rule="evenodd" clip-rule="evenodd" d="M108.332 20.6128C106.031 19.9963 103.667 21.3615 103.05 23.6624C102.434 25.9626 103.799 28.3279 106.1 28.9444C108.401 29.5609 110.766 28.1951 111.382 25.8948C111.998 23.594 110.633 21.2293 108.332 20.6128Z" fill="#CECFD3"/>
<path fill-rule="evenodd" clip-rule="evenodd" d="M98.6458 56.7633C96.3449 56.1468 93.9803 57.5121 93.3638 59.8129C92.7474 62.1131 94.1125 64.4784 96.4133 65.0949C98.7142 65.7114 101.079 64.3456 101.695 62.0453C102.312 59.7445 100.947 57.3798 98.6458 56.7633Z" fill="#CECFD3"/>
<path fill-rule="evenodd" clip-rule="evenodd" d="M88.9597 92.9137C86.6589 92.2972 84.2942 93.6624 83.6777 95.9633C83.0612 98.2641 84.4265 100.629 86.7273 101.245C89.0281 101.862 91.3928 100.497 92.0093 98.1957C92.6258 95.8949 91.2606 93.5302 88.9597 92.9137Z" fill="#CECFD3"/>
<path fill-rule="evenodd" clip-rule="evenodd" d="M79.2732 129.064C76.9724 128.448 74.6076 129.813 73.9912 132.114C73.3747 134.414 74.7399 136.779 77.0408 137.396C79.3416 138.012 81.7063 136.647 82.3228 134.346C82.9391 132.046 81.574 129.681 79.2732 129.064Z" fill="#CECFD3"/>
<path fill-rule="evenodd" clip-rule="evenodd" d="M144.483 30.2993C142.182 29.6828 139.817 31.0481 139.201 33.3489C138.584 35.6492 139.949 38.0144 142.25 38.6309C144.551 39.2474 146.916 37.8816 147.532 35.5813C148.149 33.2805 146.784 30.9158 144.483 30.2993Z" fill="#CECFD3"/>
<path fill-rule="evenodd" clip-rule="evenodd" d="M134.796 66.4497C132.495 65.8332 130.131 67.1985 129.514 69.4993C128.898 71.7995 130.263 74.1648 132.564 74.7813C134.865 75.3978 137.229 74.032 137.846 71.7317C138.462 69.4309 137.097 67.0662 134.796 66.4497Z" fill="#CECFD3"/>
<path fill-rule="evenodd" clip-rule="evenodd" d="M125.11 102.6C122.809 101.984 120.445 103.349 119.828 105.65C119.212 107.951 120.577 110.315 122.878 110.932C125.179 111.548 127.543 110.183 128.16 107.882C128.776 105.581 127.411 103.217 125.11 102.6Z" fill="#CECFD3"/>
<path fill-rule="evenodd" clip-rule="evenodd" d="M115.424 138.751C113.123 138.134 110.758 139.5 110.142 141.8C109.525 144.101 110.89 146.466 113.191 147.082C115.492 147.699 117.857 146.333 118.473 144.033C119.09 141.732 117.724 139.367 115.424 138.751Z" fill="#CECFD3"/>
</svg>
