<svg width="904" height="924" viewBox="0 0 904 924" fill="none" xmlns="http://www.w3.org/2000/svg">
<path opacity="0.563035" fill-rule="evenodd" clip-rule="evenodd" d="M0.00321066 -7.3958H991.964V851.927C991.964 851.927 1038.32 1025.77 815.062 779.476C591.806 533.186 345.142 741.942 217.182 631.092C89.2228 520.242 495.21 99.291 350.241 19.9324C205.272 -59.4262 0.00321066 -7.3958 0.00321066 -7.3958Z" fill="#00D0C9"/>
<path fill-rule="evenodd" clip-rule="evenodd" d="M72.0591 -10.6075H927.857L927.872 805.8C927.872 805.8 997.566 969.403 790.256 720.159C582.947 470.916 369.822 627.99 259.427 533.522C149.032 439.054 494.801 77.8588 369.731 10.228C244.662 -57.4027 72.0591 -10.6075 72.0591 -10.6075Z" fill="url(#paint0_linear_72_1339)"/>
<g opacity="0.240676">
<ellipse cx="677.064" cy="332.668" rx="14.4703" ry="14.175" stroke="white" stroke-width="4.725"/>
<ellipse cx="541.22" cy="190.918" rx="14.4703" ry="14.175" stroke="white" stroke-width="4.725"/>
<ellipse cx="845.392" cy="34.2218" rx="23.3297" ry="22.8536" stroke="white" stroke-width="4.725"/>
<ellipse cx="464.439" cy="350.508" rx="8.56406" ry="8.38929" stroke="white" stroke-width="4.725"/>
<rect x="711.2" y="182.607" width="42.525" height="42.525" transform="rotate(-23 711.2 182.607)" stroke="white" stroke-width="4.725"/>
<rect x="696.238" y="526.91" width="24.8062" height="24.8062" transform="rotate(-23 696.238 526.91)" stroke="white" stroke-width="4.725"/>
<rect x="544.514" y="423.726" width="12.9937" height="12.9937" transform="rotate(-23 544.514 423.726)" stroke="white" stroke-width="4.725"/>
<path d="M383.738 255.447L382.21 249.742L383.288 249.453L384.816 255.158L390.495 253.636L390.784 254.714L385.105 256.236L386.627 261.915L385.549 262.203L384.027 256.525L378.322 258.053L378.033 256.975L383.738 255.447Z" fill="white"/>
<path d="M708.582 479.884L707.053 474.179L708.131 473.89L709.66 479.595L715.339 478.074L715.628 479.152L709.949 480.673L711.471 486.352L710.393 486.641L708.871 480.962L703.166 482.491L702.877 481.413L708.582 479.884Z" fill="white"/>
<path d="M548.503 314.157L545.574 303.228L547.639 302.675L550.567 313.604L561.446 310.689L561.999 312.754L551.121 315.668L554.036 326.547L551.971 327.1L549.056 316.222L538.127 319.15L537.574 317.085L548.503 314.157Z" fill="white"/>
<path d="M438.932 27.5275L435.304 13.987L437.862 13.3015L441.49 26.842L454.968 23.2305L455.654 25.7889L442.176 29.4003L445.787 42.8784L443.229 43.5639L439.618 30.0858L426.077 33.714L425.392 31.1556L438.932 27.5275Z" fill="white"/>
<path d="M878.032 307.546L872.304 286.17L876.343 285.088L882.071 306.463L903.348 300.762L904.43 304.801L883.153 310.502L888.854 331.78L884.815 332.862L879.114 311.584L857.738 317.312L856.656 313.273L878.032 307.546Z" fill="white"/>
</g>
<defs>
<linearGradient id="paint0_linear_72_1339" x1="949.536" y1="-1270.02" x2="-269.117" y2="-110.539" gradientUnits="userSpaceOnUse">
<stop stop-color="#00D0C9"/>
<stop offset="1" stop-color="#008080"/>
</linearGradient>
</defs>
</svg>
